<svg xmlns="http://www.w3.org/2000/svg" viewBox="0 0 64 64" width="32" height="32">
  <defs>
    <linearGradient id="bbg" x1="0" y1="0" x2="0" y2="1">
      <stop offset="0%" stop-color="#6a0dad"/>
      <stop offset="100%" stop-color="#b39ddb"/>
    </linearGradient>
  </defs>
  <rect width="64" height="64" rx="16" fill="url(#bbg)"/>
  <g>
    <path d="M20 48V16h13q6 0 9 2.5t3 7.5q0 4.2-2.2 6.5T36 35v.2q4.2.5 6.1 2.5T44 43q0 5-4.2 7.1Q35.5 52 29 52zm7-20h6q3.5 0 5.2-1.3T40 24q0-2.2-1.7-3.4T32 19h-5zm0 15h6q3.7 0 5.3-1.1T40 39q0-2.1-1.7-3.1T32 35h-5z" fill="#fff"/>
  </g>
</svg>
